<?xml version="1.0" standalone="no"?>
<!DOCTYPE svg PUBLIC "-//W3C//DTD SVG 20010904//EN"
 "http://www.w3.org/TR/2001/REC-SVG-20010904/DTD/svg10.dtd">
<svg version="1.0" xmlns="http://www.w3.org/2000/svg"
 width="1392.000000pt" height="752.000000pt" viewBox="0 0 1392.000000 752.000000"
 preserveAspectRatio="xMidYMid meet">

<g transform="translate(0.000000,752.000000) scale(0.100000,-0.100000)"
fill="#000000" stroke="none">
<path d="M3970 6043 c-39 -11 -60 -28 -60 -49 0 -15 -8 -25 -27 -31 l-27 -9
26 -20 26 -19 -22 -40 c-11 -22 -24 -41 -28 -43 -5 -2 -8 -9 -8 -15 0 -6 -8
-20 -18 -31 -29 -33 -92 -143 -92 -159 0 -9 -5 -19 -10 -22 -6 -4 -7 -11 -4
-17 4 -6 2 -8 -4 -4 -6 3 -19 -5 -29 -20 -10 -14 -32 -41 -48 -58 -17 -18 -29
-40 -27 -50 3 -12 0 -16 -8 -11 -7 4 -16 1 -21 -6 -14 -22 -10 -33 6 -19 10 8
15 9 15 2 0 -11 -41 -38 -50 -33 -2 1 -6 -3 -9 -10 -2 -7 1 -9 9 -4 8 5 11 3
8 -6 -3 -8 -10 -14 -17 -14 -19 0 -120 -145 -114 -163 4 -9 2 -13 -4 -9 -6 4
-16 0 -23 -8 -9 -11 -9 -15 -1 -15 7 0 10 -4 6 -10 -3 -5 -13 -6 -22 -3 -12 5
-15 2 -10 -9 4 -11 -2 -18 -19 -22 -13 -4 -24 -12 -24 -20 0 -7 -9 -21 -21
-32 -11 -10 -25 -27 -31 -38 -9 -16 -7 -18 6 -13 10 4 15 3 11 -3 -3 -6 -12
-10 -19 -10 -7 0 -25 -14 -39 -32 -27 -32 -29 -49 -4 -32 7 5 4 1 -6 -8 -11
-10 -24 -18 -31 -19 -15 -1 -99 -109 -90 -117 4 -4 9 -1 11 5 8 21 41 58 47
52 11 -10 -118 -165 -134 -161 -20 5 -62 -39 -50 -53 12 -15 -18 -59 -88 -131
-35 -37 -43 -41 -39 -21 2 6 -1 2 -7 -11 -6 -12 -15 -21 -21 -18 -16 6 -58
-41 -49 -55 5 -9 2 -10 -9 -6 -10 3 -17 3 -17 -1 0 -5 -9 -18 -21 -31 -30 -32
-17 -38 14 -7 39 38 52 31 17 -8 -17 -18 -38 -42 -46 -52 -14 -18 -15 -18 -9
4 4 12 2 22 -2 22 -9 0 -101 -100 -116 -125 -4 -8 -20 -27 -35 -43 -58 -61
-123 -152 -117 -162 4 -7 1 -10 -8 -8 -15 3 -48 -28 -120 -115 -21 -24 -66
-73 -100 -108 -82 -84 -137 -153 -137 -170 0 -8 9 -20 20 -27 11 -7 20 -23 20
-36 0 -55 13 -89 41 -105 16 -9 29 -20 29 -25 0 -5 11 -24 25 -42 14 -18 25
-37 25 -42 0 -5 18 -37 41 -71 31 -47 54 -68 92 -88 49 -24 54 -25 102 -13 27
7 61 20 75 29 13 9 26 14 27 12 4 -3 15 1 78 25 27 10 26 9 60 19 17 4 35 11
40 15 6 4 33 13 60 19 28 7 72 23 98 37 27 13 59 24 72 24 13 0 26 4 29 8 2 4
19 9 38 10 34 3 66 22 35 22 -9 0 -17 4 -17 8 0 5 17 9 38 9 20 0 31 -2 25 -4
-7 -3 -13 -9 -13 -14 0 -6 7 -6 18 0 9 5 39 11 65 14 26 3 53 10 61 16 7 6 30
14 52 19 26 5 42 15 49 30 6 14 19 22 35 22 14 0 50 7 80 15 30 8 56 15 58 15
10 0 -4 -50 -37 -135 -41 -107 -67 -188 -76 -245 -3 -19 -10 -48 -14 -65 -5
-16 -14 -77 -21 -135 -7 -58 -16 -122 -21 -142 -18 -71 -21 -279 -5 -328 24
-76 62 -159 82 -181 17 -19 19 -19 30 -4 11 15 13 14 19 -4 9 -28 19 -26 40 5
14 22 22 25 49 20 28 -5 37 -1 74 34 23 23 42 47 42 55 0 7 10 15 23 17 12 2
26 12 31 24 5 11 19 25 30 30 19 8 21 18 23 129 2 119 17 205 35 205 5 0 6 9
3 20 -5 16 -2 20 14 20 16 0 21 6 21 28 0 15 10 47 21 72 12 27 16 46 10 48
-6 2 -2 13 8 24 11 11 22 36 26 56 3 21 13 57 22 82 8 25 19 59 23 75 9 34 55
159 69 190 26 55 51 115 51 123 0 17 76 27 150 20 217 -22 326 -49 360 -90 11
-13 22 -38 26 -56 12 -62 42 -46 65 36 26 92 -34 244 -137 347 -34 34 -77 69
-95 77 -103 48 -131 58 -161 58 -56 0 -61 11 -31 58 15 23 32 42 38 42 11 1
46 72 67 135 7 22 19 51 28 65 9 14 22 39 30 55 8 17 27 50 41 75 14 25 35 73
47 105 11 33 50 127 86 208 66 149 84 211 66 222 -6 4 -8 10 -5 15 10 16 -36
78 -70 95 -19 9 -42 29 -50 45 -20 39 -53 60 -90 56 -18 -2 -39 4 -54 15 -50
40 -89 15 -168 -109 -20 -32 -48 -75 -63 -97 -14 -22 -34 -59 -45 -82 -10 -24
-21 -43 -24 -43 -3 0 -15 -19 -25 -43 -11 -23 -37 -78 -60 -122 -124 -248
-156 -319 -158 -352 -1 -7 -6 -11 -11 -10 -6 1 -14 -14 -18 -34 -4 -19 -24
-66 -44 -103 -24 -45 -34 -75 -30 -89 4 -15 3 -18 -3 -9 -7 10 -13 3 -26 -27
-17 -43 -14 -42 -106 -46 -182 -8 -447 -41 -520 -65 -14 -5 -44 -11 -68 -14
l-42 -6 36 52 c20 29 67 85 103 123 37 39 80 86 95 105 16 19 52 60 81 92 30
31 50 60 47 64 -4 4 -2 4 4 1 7 -4 36 23 70 66 32 39 75 90 95 112 20 22 57
63 80 91 24 28 63 73 86 100 22 27 98 123 166 214 69 91 136 179 150 195 25
31 197 284 197 290 0 2 12 23 28 47 127 199 146 267 101 353 -35 67 -232 269
-270 278 -13 3 -40 10 -59 15 -19 5 -42 7 -50 5z m-600 -943 c0 -5 -5 -10 -11
-10 -5 0 -7 5 -4 10 3 6 8 10 11 10 2 0 4 -4 4 -10z m515 -140 c-3 -5 -12 -10
-18 -10 -7 0 -6 4 3 10 19 12 23 12 15 0z m-105 -50 c0 -5 -4 -10 -10 -10 -5
0 -10 5 -10 10 0 6 5 10 10 10 6 0 10 -4 10 -10z m69 -17 c-8 -10 -17 -22 -21
-28 -31 -42 -155 -194 -174 -213 -13 -13 -24 -29 -24 -37 0 -8 -7 -15 -16 -15
-15 0 -12 10 13 40 7 8 34 43 60 76 103 132 155 194 165 194 6 0 4 -8 -3 -17z
m-645 -17 c-6 -16 -24 -23 -24 -8 0 10 22 33 27 28 2 -2 1 -11 -3 -20z m519
-26 c-31 -28 -44 -48 -23 -35 6 3 10 2 10 -4 0 -5 -4 -13 -10 -16 -5 -3 -10 0
-10 7 0 9 -3 9 -10 -2 -14 -21 -12 -42 3 -35 6 4 2 -3 -11 -14 -13 -11 -32
-30 -44 -43 l-20 -23 16 27 c19 32 20 42 4 32 -7 -4 -8 -3 -4 5 4 6 12 8 18 5
8 -5 9 -1 5 10 -4 9 -3 15 2 12 4 -3 14 7 20 22 14 30 60 79 76 81 6 0 -5 -13
-22 -29z m-693 -194 c0 -3 -4 -8 -10 -11 -5 -3 -10 -1 -10 4 0 6 5 11 10 11 6
0 10 -2 10 -4z m480 -46 c0 -5 -2 -10 -4 -10 -3 0 -8 5 -11 10 -3 6 -1 10 4
10 6 0 11 -4 11 -10z m100 -29 c0 -6 -4 -13 -10 -16 -5 -3 -10 1 -10 9 0 9 5
16 10 16 6 0 10 -4 10 -9z m-140 -30 c-6 -12 -15 -21 -21 -21 -5 0 -2 11 8 24
21 28 29 27 13 -3z m98 -1 c-2 -6 -8 -6 -18 0 -13 9 -13 11 0 20 15 10 25 0
18 -20z m-48 -30 c0 -5 -5 -10 -11 -10 -5 0 -7 5 -4 10 3 6 8 10 11 10 2 0 4
-4 4 -10z m-695 -109 c-3 -6 -11 -8 -17 -5 -6 4 -5 9 3 15 16 10 23 4 14 -10z
m1284 -49 c-13 -26 -24 -49 -24 -52 -1 -9 -49 -105 -70 -140 -12 -19 -34 -65
-49 -102 -26 -67 -63 -118 -85 -118 -16 0 -14 5 15 51 14 23 28 56 31 75 6 35
17 44 27 22 2 -7 4 1 4 17 -1 17 6 44 15 62 9 18 17 39 17 47 0 8 4 17 9 20 5
4 7 -4 4 -16 -5 -19 0 -17 25 12 16 19 27 40 25 47 -3 7 7 29 21 47 14 19 26
43 26 53 0 22 23 49 28 33 2 -5 -7 -31 -19 -58z m-35 31 c-7 -30 -24 -55 -24
-35 0 12 21 62 27 62 2 0 0 -12 -3 -27z m426 -13 c0 -5 -5 -10 -11 -10 -5 0
-7 5 -4 10 3 6 8 10 11 10 2 0 4 -4 4 -10z m-54 -81 c-4 -22 -11 -46 -17 -52
-5 -7 -16 -21 -24 -32 -14 -20 -14 -20 -15 2 0 12 9 38 20 58 11 19 20 37 20
40 0 3 0 10 0 15 0 6 5 10 11 10 8 0 9 -13 5 -41z m-410 -9 c0 -11 -6 -22 -13
-24 -16 -6 -16 -1 -3 25 13 24 16 24 16 -1z m-1365 -57 c-70 -88 -79 -98 -85
-92 -3 3 7 20 23 38 16 18 39 46 52 62 12 16 26 29 31 29 5 0 -4 -17 -21 -37z
m1429 23 c0 -3 -4 -8 -10 -11 -5 -3 -10 -1 -10 4 0 6 5 11 10 11 6 0 10 -2 10
-4z m-50 -86 c0 -5 -4 -10 -10 -10 -5 0 -10 5 -10 10 0 6 5 10 10 10 6 0 10
-4 10 -10z m303 -41 c-4 -15 -8 -17 -14 -8 -6 11 4 28 18 29 0 0 -1 -9 -4 -21z
m-1788 -9 c3 -5 1 -10 -4 -10 -6 0 -11 5 -11 10 0 6 2 10 4 10 3 0 8 -4 11
-10z m-20 -40 c-3 -5 -10 -10 -16 -10 -5 0 -9 5 -9 10 0 6 7 10 16 10 8 0 12
-4 9 -10z m1585 -4 c0 -3 -4 -8 -10 -11 -5 -3 -10 -1 -10 4 0 6 5 11 10 11 6
0 10 -2 10 -4z m-1639 -49 c-10 -9 -11 -8 -5 6 3 10 9 15 12 12 3 -3 0 -11 -7
-18z m1692 8 c-3 -9 -8 -14 -10 -11 -3 3 -2 9 2 15 9 16 15 13 8 -4z m-1296
-111 c-3 -3 -12 -4 -19 -1 -8 3 -5 6 6 6 11 1 17 -2 13 -5z m106 -31 c-7 -3
-13 -11 -13 -18 0 -13 -36 -45 -51 -45 -3 0 10 18 29 40 20 22 38 37 41 33 3
-3 0 -8 -6 -10z m-161 -34 c-10 -20 -23 -34 -30 -31 -7 2 -10 -2 -6 -12 3 -9
1 -16 -6 -16 -6 0 -8 5 -5 10 3 6 1 10 -4 10 -6 0 6 17 27 38 20 21 38 38 39
37 2 -1 -5 -17 -15 -36z m-168 -24 c-9 -14 -20 -25 -26 -25 -11 0 23 49 35 50
4 0 0 -11 -9 -25z m1186 -19 c0 -3 -4 -8 -10 -11 -5 -3 -10 -1 -10 4 0 6 5 11
10 11 6 0 10 -2 10 -4z m70 -11 c0 -8 -6 -15 -14 -15 -8 0 -24 -21 -37 -47
-13 -26 -30 -49 -37 -51 -11 -3 34 83 60 116 14 16 28 15 28 -3z m-1310 -29
c0 -3 -4 -8 -10 -11 -5 -3 -10 -1 -10 4 0 6 5 11 10 11 6 0 10 -2 10 -4z m997
-7 c-19 -10 -205 -21 -210 -12 -3 5 20 9 50 10 30 1 57 3 59 5 1 2 28 4 58 4
31 0 50 -3 43 -7z m203 -18 c-10 -20 -30 -29 -30 -14 0 10 33 44 37 39 3 -2 0
-14 -7 -25z m280 -1 c0 -5 -5 -10 -11 -10 -5 0 -7 5 -4 10 3 6 8 10 11 10 2 0
4 -4 4 -10z m-740 -13 c26 4 40 2 40 -5 0 -6 7 -9 15 -6 8 4 15 2 15 -2 0 -5
-33 -9 -73 -10 -50 -1 -85 -7 -108 -19 -24 -12 -61 -19 -124 -21 -79 -2 -87
-1 -65 11 33 17 220 57 237 51 7 -3 13 0 14 7 0 8 2 9 5 1 3 -8 20 -10 44 -7z
m234 2 c-5 -8 1 -10 20 -7 14 3 26 1 26 -3 0 -14 -60 -10 -60 4 0 6 -5 4 -11
-5 -11 -20 -34 -24 -44 -8 -3 5 0 7 8 4 8 -3 20 2 27 11 14 17 45 21 34 4z
m-111 -20 c-6 -6 -19 -9 -29 -6 -17 3 -16 5 6 14 28 12 39 8 23 -8z m604 5
c-3 -3 -12 -4 -19 -1 -8 3 -5 6 6 6 11 1 17 -2 13 -5z m-707 -18 c0 -2 -13 -6
-29 -8 -17 -2 -28 -1 -25 4 5 8 54 12 54 4z m407 -33 c-15 -16 -17 -16 -17 -1
0 9 6 18 13 21 20 7 22 -2 4 -20z m-500 11 c-3 -3 -12 -4 -19 -1 -8 3 -5 6 6
6 11 1 17 -2 13 -5z m223 -4 c-20 -13 -33 -13 -25 0 3 6 14 10 23 10 15 0 15
-2 2 -10z m35 0 c3 -5 1 -10 -4 -10 -6 0 -11 5 -11 10 0 6 2 10 4 10 3 0 8 -4
11 -10z m-525 -9 c0 -16 -62 -42 -109 -47 -25 -2 -48 -9 -51 -14 -4 -6 -15 -8
-26 -4 -12 4 -15 3 -7 -3 9 -6 7 -15 -7 -33 -11 -14 -20 -20 -20 -13 0 6 5 15
10 18 6 3 10 11 10 16 0 6 -4 7 -10 4 -5 -3 -10 -2 -10 3 0 14 89 50 141 58
24 4 51 10 59 15 19 11 20 11 20 0z m327 3 c-3 -3 -12 -4 -19 -1 -8 3 -5 6 6
6 11 1 17 -2 13 -5z m527 -9 c-4 -8 -8 -15 -10 -15 -2 0 -4 7 -4 15 0 8 4 15
10 15 5 0 7 -7 4 -15z m96 -6 c0 -5 -4 -9 -10 -9 -5 0 -10 7 -10 16 0 8 5 12
10 9 6 -3 10 -10 10 -16z m-842 -5 c12 -4 22 -11 22 -16 0 -5 -9 -6 -20 -3
-12 4 -28 1 -36 -6 -17 -14 -29 -6 -21 16 7 16 19 18 55 9z m967 -3 c10 -17
-10 -20 -35 -5 l-25 13 27 1 c15 0 29 -4 33 -9z m-1035 -5 c0 -3 -4 -8 -10
-11 -5 -3 -10 -1 -10 4 0 6 5 11 10 11 6 0 10 -2 10 -4z m297 -2 c-3 -3 -12
-4 -19 -1 -8 3 -5 6 6 6 11 1 17 -2 13 -5z m203 -2 c0 -4 -25 -12 -55 -18 -30
-5 -55 -7 -55 -3 0 4 24 12 53 17 28 5 53 10 55 11 1 0 2 -3 2 -7z m216 -8
c-3 -9 -6 -18 -6 -20 0 -3 -4 -3 -10 1 -11 7 -2 35 12 35 6 0 7 -7 4 -16z
m-499 -10 c-3 -3 -12 -4 -19 -1 -8 3 -5 6 6 6 11 1 17 -2 13 -5z m313 2 c0 -2
-7 -7 -16 -10 -8 -3 -12 -2 -9 4 6 10 25 14 25 6z m-273 -12 c-3 -3 -12 -4
-19 -1 -8 3 -5 6 6 6 11 1 17 -2 13 -5z m118 -4 c-3 -5 -10 -10 -16 -10 -5 0
-9 5 -9 10 0 6 7 10 16 10 8 0 12 -4 9 -10z m-383 -42 c-7 -7 -12 -8 -12 -2 0
6 3 14 7 17 3 4 9 5 12 2 2 -3 -1 -11 -7 -17z m-135 -10 c-3 -8 -6 -5 -6 6 -1
11 2 17 5 13 3 -3 4 -12 1 -19z m273 -7 c0 -3 -14 -6 -30 -7 -32 -1 -41 12
-12 18 19 5 42 -1 42 -11z m150 -20 c0 -6 -4 -13 -10 -16 -5 -3 -10 1 -10 9 0
9 5 16 10 16 6 0 10 -4 10 -9z m-312 -19 c-9 -2 -19 -11 -21 -20 -4 -13 -5
-11 -6 5 -1 22 16 35 34 24 6 -3 2 -7 -7 -9z m42 8 c0 -5 -4 -10 -10 -10 -5 0
-10 5 -10 10 0 6 5 10 10 10 6 0 10 -4 10 -10z m-90 -10 c0 -5 -5 -10 -11 -10
-5 0 -7 5 -4 10 3 6 8 10 11 10 2 0 4 -4 4 -10z m270 -3 c0 -8 -13 -13 -37
-13 l-37 0 30 13 c38 16 44 16 44 0z m40 3 c-19 -13 -30 -13 -30 0 0 6 10 10
23 10 18 0 19 -2 7 -10z m-180 -10 c0 -5 -4 -10 -10 -10 -5 0 -10 5 -10 10 0
6 5 10 10 10 6 0 10 -4 10 -10z m632 -42 c-8 -8 -9 -4 -5 13 4 13 8 18 11 10
2 -7 -1 -18 -6 -23z m-628 11 c-2 -4 0 -10 6 -14 11 -7 4 -25 -10 -25 -5 0 -7
7 -4 15 4 9 0 15 -10 15 -9 0 -16 4 -16 9 0 6 9 9 19 8 11 0 18 -4 15 -8z
m239 -36 c-7 -2 -19 -2 -25 0 -7 3 -2 5 12 5 14 0 19 -2 13 -5z m361 -39 c3
-8 2 -12 -4 -9 -6 3 -10 10 -10 16 0 14 7 11 14 -7z m-487 0 c-3 -3 -12 -4
-19 -1 -8 3 -5 6 6 6 11 1 17 -2 13 -5z m-222 -44 c-3 -5 -11 -10 -16 -10 -6
0 -7 5 -4 10 3 6 11 10 16 10 6 0 7 -4 4 -10z m-40 -20 c-3 -5 -11 -10 -16
-10 -6 0 -7 5 -4 10 3 6 11 10 16 10 6 0 7 -4 4 -10z m715 -10 c0 -5 -4 -10
-10 -10 -5 0 -10 5 -10 10 0 6 5 10 10 10 6 0 10 -4 10 -10z m-775 -19 c-18
-11 -33 -14 -36 -8 -4 5 -12 6 -19 2 -9 -6 -11 -4 -6 4 5 7 13 10 20 8 6 -2
20 -1 31 4 36 14 41 9 10 -10z m-75 -11 c0 -5 -8 -10 -18 -10 -10 0 -22 -4
-28 -10 -5 -5 -36 -18 -69 -29 -33 -10 -69 -22 -80 -26 l-20 -7 20 14 c11 8
40 22 65 31 25 9 63 23 85 31 49 19 45 18 45 6z m1107 -282 c-3 -8 -6 -5 -6 6
-1 11 2 17 5 13 3 -3 4 -12 1 -19z m-77 -168 c0 -5 -2 -10 -4 -10 -3 0 -8 5
-11 10 -3 6 -1 10 4 10 6 0 11 -4 11 -10z"/>
<path d="M3976 4153 c-6 -14 -5 -15 5 -6 7 7 10 15 7 18 -3 3 -9 -2 -12 -12z"/>
<path d="M7546 5316 c-10 -6 -33 -23 -49 -38 -30 -27 -31 -28 -12 -42 20 -15
19 -16 -14 -81 -18 -36 -47 -85 -62 -108 -16 -23 -29 -47 -29 -53 0 -7 -7 -14
-15 -18 -8 -3 -20 -17 -25 -31 -5 -14 -14 -25 -20 -25 -5 0 -10 -9 -10 -19 0
-11 -3 -21 -7 -23 -10 -4 -73 -85 -73 -93 0 -3 -30 -51 -67 -106 -38 -54 -78
-117 -90 -139 -12 -24 -23 -35 -26 -28 -4 8 -6 7 -6 -4 -1 -9 -12 -27 -25 -40
-34 -33 -96 -125 -96 -143 0 -9 -5 -13 -10 -10 -6 4 -16 -8 -24 -25 -7 -17
-16 -30 -21 -28 -4 2 -15 -8 -24 -22 -9 -14 -11 -21 -4 -17 9 6 11 3 7 -7 -3
-9 -13 -16 -20 -16 -8 0 -17 -8 -21 -17 -4 -10 -18 -32 -32 -49 -14 -17 -44
-57 -66 -89 -22 -32 -47 -65 -56 -74 -9 -9 -23 -29 -32 -46 -8 -16 -32 -49
-52 -73 -21 -24 -57 -72 -81 -108 l-43 -64 22 -38 c49 -84 142 -190 180 -206
49 -21 107 -13 107 15 0 11 5 19 10 19 6 0 10 -7 10 -16 0 -11 5 -14 18 -9 9
4 44 18 77 30 33 13 87 35 120 50 99 45 271 104 312 107 30 2 37 0 34 -12 -2
-8 -11 -44 -21 -80 -11 -37 -15 -66 -9 -68 12 -5 12 -62 -1 -62 -6 0 -8 11 -4
28 5 19 3 24 -4 17 -6 -5 -13 -28 -16 -50 -3 -22 -3 -34 0 -27 9 19 24 14 24
-9 0 -15 -5 -19 -15 -15 -9 3 -19 -3 -25 -14 -12 -22 -1 -27 18 -8 9 9 12 7
12 -9 0 -12 -5 -25 -10 -28 -6 -4 -8 -10 -5 -16 9 -13 -6 -79 -17 -79 -8 0 -4
47 9 93 2 9 1 17 -4 17 -18 0 -37 -99 -37 -200 -1 -163 51 -297 97 -251 6 6
24 11 39 11 19 0 28 5 28 16 0 11 6 13 19 9 13 -4 25 2 39 20 11 14 25 25 32
25 15 0 52 85 49 113 -1 12 2 33 8 47 5 14 9 39 8 55 -1 17 3 39 9 50 6 11 9
26 7 34 -1 7 2 10 9 6 8 -5 11 1 9 16 -2 13 3 34 10 47 7 13 10 30 7 38 -3 8
0 14 5 14 6 0 9 8 7 18 -3 10 1 27 8 36 7 10 10 24 7 32 -3 9 1 14 12 14 11 0
15 5 11 15 -3 8 -1 15 4 15 5 0 16 21 24 48 8 26 24 66 35 90 21 42 22 42 79
43 31 1 60 1 64 0 3 0 34 -1 67 -3 34 -1 61 -6 61 -10 0 -4 19 -13 41 -20 23
-6 46 -20 53 -30 6 -10 17 -18 24 -18 22 0 7 149 -18 174 -5 5 -10 17 -10 26
0 17 -49 66 -85 86 -11 6 -44 17 -73 24 -72 19 -77 27 -53 91 11 30 23 71 27
92 3 20 10 40 15 42 11 8 76 144 85 179 8 32 63 133 94 173 11 14 20 39 20 54
0 39 -38 96 -74 110 -15 7 -38 22 -50 34 -11 13 -39 26 -61 30 -22 4 -52 9
-66 12 -24 4 -32 -2 -66 -54 -35 -52 -143 -260 -143 -275 0 -4 -20 -49 -45
-101 -25 -53 -45 -100 -45 -105 0 -6 -7 -23 -15 -39 -27 -51 -65 -143 -65
-157 0 -22 -22 -34 -70 -39 -129 -16 -206 -28 -304 -51 -164 -39 -182 -34 -91
24 38 25 89 77 169 175 63 77 121 147 129 156 7 8 30 43 50 76 21 34 41 63 45
65 14 6 105 132 118 164 8 18 20 37 27 41 20 12 51 63 39 63 -6 0 -16 -9 -22
-21 -7 -11 -14 -19 -17 -16 -6 7 19 50 35 60 6 4 12 12 12 17 0 5 11 26 25 46
30 44 33 33 4 -15 -11 -18 -18 -35 -16 -38 7 -6 49 53 84 117 28 52 72 123 91
145 13 16 32 76 32 102 0 57 -60 136 -171 225 -54 43 -69 48 -93 34z m-70
-733 c-9 -15 -36 -55 -60 -88 -25 -33 -45 -65 -45 -72 -1 -6 -4 -13 -9 -15 -4
-1 -25 -27 -46 -55 -21 -29 -43 -53 -49 -53 -7 0 -19 -15 -28 -33 -11 -21 -22
-31 -34 -29 -14 3 -16 -1 -12 -17 3 -12 1 -19 -4 -15 -5 3 -9 0 -9 -7 0 -10
-2 -10 -12 0 -11 10 -7 18 20 42 18 16 30 29 27 29 -3 0 3 9 13 19 25 27 55
65 72 91 23 36 106 142 134 173 14 15 23 27 21 27 -3 0 3 9 12 20 23 27 28 18
9 -17z m426 -290 c-33 -64 -43 -94 -37 -112 4 -15 2 -21 -8 -21 -15 0 -24 -19
-52 -110 -23 -75 -37 -103 -55 -108 -8 -3 -12 -1 -8 3 4 4 -1 15 -10 24 -10 9
-16 15 -14 14 3 -1 11 5 20 13 11 12 12 18 4 23 -9 5 -8 21 3 62 9 30 20 62
25 71 6 10 10 25 10 33 0 9 4 14 8 11 5 -3 15 6 22 20 8 13 23 27 35 30 12 3
29 18 39 35 18 31 33 41 18 12z m-747 -143 c-3 -5 -16 -15 -28 -21 l-22 -12
20 21 c21 22 41 30 30 12z m-155 -30 c0 -5 -5 -10 -11 -10 -5 0 -7 5 -4 10 3
6 8 10 11 10 2 0 4 -4 4 -10z m108 -38 c-31 -39 -48 -55 -54 -49 -3 3 5 17 19
31 15 14 24 26 21 26 -3 0 -2 5 1 10 4 6 11 8 16 4 6 -3 5 -12 -3 -22z m-124
3 c3 -8 0 -14 -6 -12 -6 1 -16 -7 -22 -18 -6 -11 -17 -31 -25 -43 -7 -13 -15
-21 -18 -19 -6 6 28 70 40 75 4 2 7 10 7 18 0 19 16 18 24 -1z m106 -60 c0 -2
-9 -9 -20 -15 -12 -6 -20 -7 -20 -1 0 5 8 12 18 14 9 3 18 5 20 6 1 0 2 -1 2
-4z m568 -36 c-1 -22 -5 -42 -9 -44 -3 -3 -5 6 -4 18 1 12 3 32 4 45 0 12 3
22 6 22 3 0 5 -18 3 -41z m-678 -53 c0 -3 -4 -8 -10 -11 -5 -3 -10 -1 -10 4 0
6 5 11 10 11 6 0 10 -2 10 -4z m285 -176 c-3 -5 -12 -10 -18 -10 -7 0 -6 4 3
10 19 12 23 12 15 0z m-647 -47 c-6 -7 -16 -13 -22 -12 -7 0 -6 2 2 6 6 2 12
17 13 31 0 24 1 25 8 7 5 -11 4 -25 -1 -32z m47 27 c3 -6 -1 -7 -9 -4 -18 7
-21 14 -7 14 6 0 13 -4 16 -10z m-65 -3 c0 -2 -12 -14 -27 -28 l-28 -24 24 28
c23 25 31 32 31 24z m95 -16 c3 -5 1 -12 -5 -16 -5 -3 -10 1 -10 9 0 18 6 21
15 7z m105 -11 c-8 -5 -17 -7 -19 -4 -3 3 1 9 9 14 8 5 17 7 19 4 3 -3 -1 -9
-9 -14z m210 -1 c0 -5 -8 -9 -18 -9 -10 0 -26 -6 -37 -13 -31 -21 -57 -29 -53
-15 9 26 108 61 108 37z m-351 -45 c-18 -22 -22 -11 -7 22 10 21 14 24 16 10
2 -9 -2 -24 -9 -32z m411 6 c0 -5 -5 -10 -11 -10 -5 0 -7 5 -4 10 3 6 8 10 11
10 2 0 4 -4 4 -10z m-450 -4 c0 -2 -7 -7 -16 -10 -8 -3 -12 -2 -9 4 6 10 25
14 25 6z m136 -22 c-4 -9 -9 -15 -11 -12 -3 3 -3 13 1 22 4 9 9 15 11 12 3 -3
3 -13 -1 -22z m117 4 c18 2 26 -2 22 -8 -3 -6 -11 -7 -17 -4 -6 4 -14 1 -18
-7 -7 -10 -11 -10 -24 0 -19 16 -22 36 -4 25 7 -5 25 -7 41 -6z m137 -13 c-13
-14 -27 -25 -31 -25 -11 0 33 48 45 49 5 1 -1 -10 -14 -24z m620 16 c0 -6 -5
-13 -10 -16 -6 -4 -10 -12 -9 -18 4 -26 -26 -107 -39 -107 -9 0 -13 -7 -9 -20
3 -11 -2 -34 -10 -51 -16 -32 -31 -33 -18 -2 4 10 7 28 6 41 -2 13 5 34 13 47
9 14 18 38 20 55 4 33 31 80 46 80 6 0 10 -4 10 -9z m-900 -15 c0 -3 -4 -8
-10 -11 -5 -3 -10 -1 -10 4 0 6 5 11 10 11 6 0 10 -2 10 -4z m-100 -15 c0 -5
-7 -11 -15 -15 -15 -5 -20 5 -8 17 9 10 23 9 23 -2z m65 -1 c-3 -5 2 -10 12
-10 15 0 16 -2 3 -10 -17 -11 -36 3 -26 19 4 6 9 11 12 11 3 0 2 -4 -1 -10z
m234 -4 c-2 -2 -15 -9 -29 -15 -24 -11 -24 -11 -6 3 16 13 49 24 35 12z m-289
-22 c0 -9 -32 -33 -44 -34 -5 0 -1 9 9 20 18 20 35 26 35 14z m150 -4 c0 -5
-10 -10 -22 -10 -19 0 -20 2 -8 10 19 13 30 13 30 0z m55 -20 c3 -5 1 -10 -4
-10 -6 0 -11 5 -11 10 0 6 2 10 4 10 3 0 8 -4 11 -10z m-165 -10 c0 -5 -5 -10
-11 -10 -5 0 -7 5 -4 10 3 6 8 10 11 10 2 0 4 -4 4 -10z m50 6 c0 -3 -4 -8
-10 -11 -5 -3 -10 -1 -10 4 0 6 5 11 10 11 6 0 10 -2 10 -4z m90 -10 c0 -2 -7
-7 -16 -10 -8 -3 -12 -2 -9 4 6 10 25 14 25 6z m145 -26 c-3 -5 -14 -10 -23
-10 -15 0 -15 2 -2 10 20 13 33 13 25 0z m-78 -25 c-15 -14 -35 -25 -44 -25
-20 0 -14 7 29 30 45 24 48 23 15 -5z m-73 -37 c-3 -4 -12 -8 -20 -8 -8 0 -13
4 -10 8 3 5 12 9 20 9 8 0 13 -4 10 -9z m707 -115 c-12 -20 -14 -14 -5 12 4 9
9 14 11 11 3 -2 0 -13 -6 -23z"/>
<path d="M8647 5199 c-16 -9 -15 -13 13 -53 30 -41 31 -45 26 -132 -3 -66 -16
-131 -51 -254 -26 -91 -51 -178 -55 -195 -4 -16 -22 -75 -38 -130 -17 -55 -40
-139 -51 -186 -12 -47 -28 -106 -36 -130 -9 -24 -20 -64 -26 -89 -5 -25 -18
-74 -28 -110 -11 -36 -32 -110 -46 -165 -15 -55 -33 -120 -41 -145 -7 -25 -21
-76 -30 -115 -9 -38 -27 -105 -40 -147 -28 -86 -56 -116 -131 -139 -52 -15
-57 -43 -15 -81 15 -13 42 -42 61 -62 18 -21 48 -44 66 -52 19 -7 36 -18 40
-24 8 -13 72 -13 80 0 18 29 220 113 324 134 180 37 321 26 492 -38 53 -20
101 -36 107 -36 21 0 33 32 47 125 8 53 21 115 29 138 7 23 17 71 21 107 4 35
13 81 21 102 19 53 29 158 16 158 -6 0 -32 -27 -58 -61 -26 -33 -71 -77 -98
-97 -28 -20 -57 -42 -63 -49 -27 -25 -120 -72 -163 -82 -67 -16 -491 -63 -507
-57 -11 5 -12 10 -2 28 20 38 99 256 130 363 44 150 71 237 80 263 5 13 9 33
9 46 0 13 7 27 16 30 10 4 14 14 11 26 -3 13 0 20 10 20 10 0 12 6 8 20 -4 12
-2 20 5 20 6 0 10 6 9 13 -4 28 2 57 11 57 5 0 7 -8 3 -17 -9 -28 11 -3 25 30
7 16 8 27 2 27 -6 0 -10 8 -10 18 0 14 2 15 10 2 7 -10 10 -11 11 -2 2 15 6
31 9 35 1 1 3 9 5 17 2 8 11 32 20 54 9 21 14 45 11 53 -3 8 -1 11 4 8 6 -3
11 2 12 12 2 32 3 38 9 48 4 6 14 35 24 65 10 30 21 60 25 65 5 6 15 33 23 60
60 198 117 314 189 388 26 27 48 52 48 56 0 4 -12 18 -27 31 -32 28 -132 38
-209 22 -37 -8 -78 -7 -164 4 -136 16 -149 17 -173 3z"/>
<path d="M11190 5117 c-77 -27 -172 -77 -177 -94 -3 -6 10 -19 27 -28 29 -15
31 -19 25 -53 -3 -20 -23 -91 -45 -157 -101 -315 -130 -409 -130 -425 0 -9 -9
-43 -19 -76 -11 -32 -31 -104 -45 -159 -15 -55 -44 -165 -66 -245 -22 -80 -47
-174 -56 -210 -26 -108 -65 -167 -188 -289 -62 -61 -120 -111 -129 -111 -60 0
-64 150 -11 360 27 104 26 102 126 309 79 163 80 170 29 284 -28 63 -71 107
-105 107 -8 0 -30 13 -48 29 -66 57 -116 76 -203 76 -71 -1 -88 -5 -144 -34
-130 -66 -218 -139 -285 -236 -53 -75 -66 -106 -66 -153 1 -75 62 -162 115
-162 17 0 25 9 33 38 17 55 97 165 190 258 117 118 196 149 269 105 55 -34 54
-46 -40 -254 -11 -27 -29 -53 -39 -58 -10 -5 -71 -27 -136 -49 -217 -72 -399
-168 -481 -255 -147 -156 -183 -356 -83 -467 115 -128 259 -114 382 36 33 40
85 111 115 156 31 46 61 87 67 91 19 12 26 -9 17 -54 -5 -24 -4 -67 2 -102 18
-102 73 -176 161 -215 40 -17 52 -19 70 -9 38 21 126 100 152 138 13 20 39 51
57 70 34 36 79 97 79 108 0 11 45 73 53 73 4 0 7 -41 7 -91 0 -78 3 -96 25
-133 17 -28 36 -46 60 -55 44 -16 56 -7 82 55 10 24 21 44 24 44 4 0 24 -22
45 -50 45 -59 130 -121 197 -144 96 -32 240 -10 340 54 55 35 197 169 197 186
0 7 6 14 14 17 35 14 140 206 176 322 7 22 19 52 27 68 17 34 45 257 39 306
-22 161 -96 276 -216 338 -47 24 -67 28 -135 28 -92 0 -156 -26 -248 -98 -75
-59 -176 -165 -191 -201 -8 -17 -28 -47 -45 -66 l-30 -35 -1 35 c0 20 4 40 9
45 10 12 101 241 101 256 0 15 172 355 235 464 60 105 79 156 76 205 -4 64
-93 131 -172 130 -13 -1 -53 -11 -89 -23z m378 -935 c49 -32 64 -67 64 -152
-2 -182 -84 -362 -263 -576 -73 -88 -111 -120 -204 -177 -101 -62 -176 -43
-248 63 -21 31 -22 119 -3 212 44 204 275 542 421 614 90 44 181 50 233 16z
m-1388 -357 c0 -18 -91 -183 -138 -249 -59 -83 -218 -248 -264 -272 -33 -17
-56 -9 -64 22 -23 92 91 278 228 369 23 16 52 37 64 47 45 40 174 101 174 83z"/>
<path d="M5637 5051 c-10 -4 -17 -10 -15 -14 3 -7 -70 -47 -87 -47 -5 0 -22
-11 -37 -25 -15 -14 -32 -25 -38 -25 -5 0 -10 -3 -10 -7 0 -5 -17 -19 -38 -33
-20 -13 -50 -39 -67 -56 -16 -17 -38 -34 -48 -38 -11 -3 -21 -15 -24 -26 -3
-11 -11 -20 -17 -20 -7 0 -28 -21 -47 -47 -18 -26 -40 -55 -49 -64 -33 -35
-84 -106 -112 -154 -30 -52 -88 -175 -88 -188 0 -6 -7 -21 -15 -31 -8 -10 -12
-22 -10 -27 3 -4 1 -10 -5 -14 -5 -3 -10 -15 -10 -26 0 -11 -7 -22 -15 -25 -8
-4 -12 -10 -9 -15 3 -6 1 -16 -5 -23 -6 -7 -12 -30 -13 -52 -2 -21 -9 -43 -15
-49 -24 -19 -52 -221 -49 -350 1 -66 6 -131 10 -145 4 -14 11 -47 16 -75 15
-80 70 -205 120 -270 69 -90 246 -193 400 -233 14 -4 68 -6 120 -6 77 0 104 4
145 22 27 13 52 26 55 30 3 4 21 15 40 25 54 27 250 167 234 167 -5 0 1 7 13
15 34 24 149 159 213 250 19 28 38 52 42 53 4 2 8 10 8 18 0 9 4 13 8 10 5 -3
8 14 9 37 l0 42 -19 -42 c-10 -24 -23 -43 -28 -43 -6 0 -10 -5 -10 -10 0 -6
-22 -39 -50 -74 -27 -35 -47 -66 -43 -70 3 -3 0 -6 -7 -6 -7 0 -33 -20 -57
-45 -39 -41 -63 -55 -63 -39 0 4 11 17 25 30 14 13 25 20 25 16 0 -4 12 11 27
33 15 22 32 45 39 50 6 6 42 55 79 110 37 55 75 108 84 118 9 10 32 51 51 90
26 53 40 72 55 72 15 0 23 11 33 45 8 25 17 54 21 65 23 59 43 122 43 135 1 8
5 21 11 28 8 10 7 16 -4 23 -12 8 -6 13 13 10 4 0 5 12 4 27 -2 15 3 45 12 67
23 65 22 343 -2 420 -21 68 -49 126 -80 168 -24 32 -159 147 -174 147 -5 0
-15 7 -23 16 -14 17 -60 43 -92 51 -12 3 -69 8 -126 10 -108 5 -172 -9 -213
-45 -12 -10 -18 -11 -18 -4 0 7 5 12 12 12 6 0 8 3 5 6 -4 4 -14 1 -23 -7 -15
-12 -17 -12 -12 1 7 23 -74 62 -105 51z m467 -232 c15 -11 36 -40 48 -62 21
-41 60 -220 52 -241 -4 -11 -11 -69 -20 -148 -10 -95 -133 -448 -156 -448 -4
0 -8 8 -9 18 0 14 -2 14 -8 -3 -5 -11 -4 -23 1 -26 5 -3 5 -17 -1 -32 -13 -34
-25 -35 -17 -2 4 14 3 25 -2 25 -11 0 -47 -82 -43 -99 1 -9 -3 -12 -13 -8 -11
5 -17 -3 -22 -28 -4 -21 -10 -32 -17 -28 -6 3 -7 1 -3 -5 6 -10 -10 -49 -25
-62 -3 -3 -11 -14 -17 -26 -11 -20 -23 -36 -111 -138 -144 -168 -291 -295
-365 -316 -43 -12 -48 -11 -80 11 -35 24 -69 81 -79 134 -6 27 -19 188 -20
225 0 19 20 212 24 225 1 6 -1 18 -6 28 -4 9 -3 23 3 30 6 6 10 29 10 51 0 21
5 42 11 46 7 3 9 14 6 23 -4 9 -2 24 3 34 7 11 7 24 1 35 -8 14 -6 16 7 11 14
-5 16 -1 12 25 -2 18 -3 32 -2 32 1 0 9 -3 18 -6 15 -6 14 -41 -3 -69 -3 -5
-7 -27 -8 -48 -2 -20 -10 -49 -19 -63 -13 -19 -14 -24 -3 -22 21 5 51 58 55
98 3 33 11 54 70 188 13 29 24 59 24 67 0 8 5 14 11 12 14 -3 41 71 32 86 -4
6 0 8 10 4 9 -3 16 -3 15 1 -1 4 6 23 17 42 19 35 21 40 23 72 1 11 7 15 17
12 9 -4 18 1 22 12 3 11 21 32 40 48 18 15 30 32 28 37 -3 4 4 13 15 19 11 6
20 17 20 24 0 8 9 16 20 19 11 3 20 9 19 14 -3 18 1 36 8 30 3 -4 18 3 31 15
14 13 22 17 18 10 -6 -10 -1 -11 21 -6 27 6 95 50 101 66 2 4 10 8 17 8 8 0
20 8 27 18 17 24 84 51 129 51 22 1 47 -7 63 -20z m276 1 c0 -5 -2 -10 -4 -10
-3 0 -8 5 -11 10 -3 6 -1 10 4 10 6 0 11 -4 11 -10z m-820 -262 c0 -7 -16 -28
-35 -47 -19 -18 -37 -42 -40 -52 -4 -10 -11 -19 -16 -19 -5 0 -9 -6 -9 -13 0
-8 -8 -24 -18 -35 -11 -12 -30 -46 -43 -77 -13 -30 -27 -55 -31 -55 -5 0 -8
-7 -8 -15 0 -8 -4 -15 -10 -15 -5 0 -10 -6 -10 -12 0 -7 -7 -26 -15 -42 -9
-16 -16 -40 -17 -53 -3 -27 -5 -28 -23 -9 -8 7 -10 17 -6 22 13 16 51 126 46
134 -3 4 2 10 10 14 8 3 15 15 15 26 0 11 5 20 10 20 6 0 10 9 10 20 0 11 4
20 10 20 5 0 17 14 25 30 9 17 20 28 25 25 6 -4 10 2 10 12 0 10 16 34 35 53
19 19 35 38 35 42 0 4 7 8 15 8 8 0 15 7 15 15 0 8 5 15 10 15 6 0 10 -6 10
-12z m-199 -122 c-17 -18 -31 -37 -31 -43 0 -6 -7 -16 -15 -23 -8 -7 -15 -21
-15 -31 0 -11 -5 -19 -10 -19 -6 0 -16 -11 -22 -25 -6 -14 -17 -25 -25 -25
-14 0 -18 16 -5 22 9 4 72 94 72 104 0 16 74 96 78 85 2 -7 -10 -27 -27 -45z
m139 -10 c0 -2 -8 -10 -17 -17 -16 -13 -17 -12 -4 4 13 16 21 21 21 13z m-75
-126 c3 -5 1 -10 -4 -10 -6 0 -11 5 -11 10 0 6 2 10 4 10 3 0 8 -4 11 -10z
m-265 -174 c0 -3 -4 -8 -10 -11 -5 -3 -10 -1 -10 4 0 6 5 11 10 11 6 0 10 -2
10 -4z m36 -44 c-17 -16 -18 -16 -5 5 7 12 15 20 18 17 3 -2 -3 -12 -13 -22z
m-246 -171 c0 -5 -9 -7 -20 -4 -11 3 -20 7 -20 9 0 2 9 4 20 4 11 0 20 -4 20
-9z m1420 -41 c-16 -31 -23 -18 -8 15 7 15 14 23 16 17 2 -6 -2 -21 -8 -32z
m-397 -45 c-3 -9 -8 -14 -10 -11 -3 3 -2 9 2 15 9 16 15 13 8 -4z m-38 -375
c3 -5 1 -10 -4 -10 -6 0 -11 5 -11 10 0 6 2 10 4 10 3 0 8 -4 11 -10z m63 -2
c-2 -5 -8 -9 -13 -9 -5 0 -11 4 -13 9 -1 5 4 9 13 9 9 0 14 -4 13 -9z m-98
-17 c0 -18 -117 -134 -128 -127 -8 5 -12 0 -12 -13 0 -12 -7 -21 -15 -21 -8 0
-15 5 -15 11 0 5 5 7 12 3 8 -5 9 -2 5 9 -6 17 24 42 37 30 3 -3 6 1 6 11 0 9
4 15 9 12 5 -4 29 16 53 43 46 54 48 55 48 42z m70 -26 c0 -8 -2 -15 -4 -15
-2 0 -12 -3 -21 -6 -15 -6 -15 -4 -4 15 16 25 29 27 29 6z m-52 -40 c-2 -5 -8
-10 -15 -11 -6 -1 -9 4 -6 12 6 16 27 15 21 -1z m-85 -52 c-3 -10 -11 -24 -17
-32 -8 -11 -8 -13 2 -7 19 11 14 2 -11 -22 -23 -22 -24 -22 -22 -2 1 18 40 80
50 80 2 0 2 -8 -2 -17z m27 -23 c0 -5 -5 -10 -11 -10 -5 0 -7 5 -4 10 3 6 8
10 11 10 2 0 4 -4 4 -10z"/>
<path d="M5246 3863 c-6 -14 -5 -15 5 -6 7 7 10 15 7 18 -3 3 -9 -2 -12 -12z"/>
<path d="M3065 4743 c-19 -20 -31 -41 -27 -47 4 -7 8 -5 10 6 2 9 11 20 20 23
15 4 47 55 36 55 -2 0 -20 -16 -39 -37z"/>
<path d="M2924 4568 l-19 -23 23 19 c12 11 22 21 22 23 0 8 -8 2 -26 -19z"/>
<path d="M6330 3786 c0 -9 5 -16 10 -16 6 0 10 4 10 9 0 6 -4 13 -10 16 -5 3
-10 -1 -10 -9z"/>
<path d="M6324 3752 c-6 -4 -18 -21 -27 -38 -9 -17 -23 -36 -31 -43 -21 -18
-20 -26 4 -28 22 -2 27 12 8 20 -9 4 -8 6 3 6 8 1 25 20 37 42 23 43 24 53 6
41z"/>
<path d="M6260 3615 c0 -8 5 -15 10 -15 6 0 10 7 10 15 0 8 -4 15 -10 15 -5 0
-10 -7 -10 -15z"/>
<path d="M3380 3440 c0 -12 8 -12 35 0 18 8 17 9 -7 9 -16 1 -28 -3 -28 -9z"/>
<path d="M7949 2706 c-2 -2 -39 -7 -82 -10 -43 -3 -82 -8 -87 -11 -5 -3 -53
-8 -107 -10 -54 -3 -119 -7 -146 -10 -28 -2 -45 0 -42 6 4 5 2 9 -4 9 -5 0
-13 -5 -17 -11 -4 -8 -27 -9 -69 -5 -65 7 -107 0 -85 -14 7 -4 0 -9 -19 -12
-17 -2 -36 -1 -43 4 -9 5 -5 8 11 8 13 0 22 2 19 5 -3 3 -43 -1 -89 -9 -46 -8
-97 -12 -113 -9 -16 3 -26 2 -23 -3 3 -5 -32 -10 -79 -11 -61 -1 -88 -6 -100
-17 -8 -9 -21 -16 -27 -16 -7 0 -6 4 3 10 13 8 12 10 -2 10 -10 0 -18 -6 -18
-12 0 -10 -3 -9 -9 1 -7 11 -11 10 -20 -5 -6 -11 -11 -13 -11 -6 0 15 -50 16
-50 1 0 -6 9 -8 21 -4 13 5 19 3 15 -3 -3 -5 -15 -12 -26 -15 -15 -4 -20 0
-20 16 -1 20 -2 21 -14 5 -13 -18 -32 -26 -22 -10 3 4 -39 1 -92 -7 -53 -8
-98 -18 -100 -22 -2 -4 -12 -5 -22 -2 -11 3 -20 1 -20 -5 0 -6 -9 -8 -19 -5
-11 3 -44 0 -73 -7 -29 -6 -64 -13 -78 -16 -101 -16 -140 -28 -128 -36 10 -7
8 -8 -4 -4 -21 6 -207 -31 -225 -46 -7 -5 -17 -7 -23 -3 -6 3 -26 1 -44 -5
-19 -6 -56 -15 -82 -19 -80 -15 -423 -117 -521 -155 -50 -20 -97 -36 -105 -36
-8 0 -18 -3 -21 -7 -12 -12 -102 -40 -114 -36 -7 3 -13 -3 -13 -12 0 -14 -3
-15 -14 -6 -11 9 -16 9 -22 0 -5 -8 -3 -9 6 -4 8 5 11 4 7 -2 -4 -6 -17 -8
-31 -6 -13 3 -27 0 -30 -6 -4 -6 -15 -11 -24 -11 -30 0 -102 -32 -95 -43 3 -6
1 -7 -6 -3 -6 4 -17 4 -24 -1 -7 -5 -37 -20 -67 -32 -122 -50 -254 -134 -323
-204 -37 -38 -74 -81 -81 -96 -19 -36 -28 -109 -14 -113 5 -2 12 -16 13 -31 4
-33 47 -77 76 -77 12 0 46 -26 81 -61 50 -51 64 -60 86 -56 14 3 34 0 43 -6
14 -9 22 -7 36 5 10 8 24 13 30 11 7 -3 16 3 19 12 11 28 98 125 112 125 4 0
17 7 28 16 10 8 13 12 5 8 -9 -4 -12 -3 -7 4 3 6 19 13 35 17 16 3 37 15 46
25 9 10 23 16 30 14 7 -3 15 2 19 11 3 9 9 14 14 12 4 -3 18 1 32 9 14 7 18
13 11 14 -13 0 -13 2 -2 13 11 10 14 9 18 -1 4 -10 8 -10 19 -1 8 6 12 14 10
18 -3 4 11 8 30 8 21 1 56 14 86 32 27 17 56 31 64 31 9 0 22 7 30 15 8 8 21
12 28 9 8 -3 17 0 22 7 5 8 3 10 -6 4 -8 -5 -11 -4 -7 3 4 5 15 8 26 5 11 -3
21 2 24 11 4 9 13 13 21 10 9 -3 27 3 42 15 14 11 31 18 36 15 14 -9 89 17 82
27 -3 5 2 6 10 3 8 -3 24 0 37 6 17 10 19 14 8 22 -10 6 -7 7 10 3 20 -6 23
-4 17 10 -5 15 -4 16 8 6 10 -9 20 -9 40 0 14 7 26 16 26 20 0 4 9 5 20 2 21
-6 28 12 8 20 -7 2 -10 8 -5 12 4 5 13 1 20 -9 11 -15 17 -15 42 -5 17 7 34
11 38 10 5 -1 6 3 2 8 -3 6 4 15 15 21 12 6 20 7 20 1 0 -5 -6 -12 -12 -14 -9
-4 -8 -5 2 -6 8 0 58 15 110 33 67 23 94 37 92 47 -3 10 0 11 8 3 8 -8 35 -4
103 18 108 34 387 107 436 113 18 3 37 8 43 11 10 7 44 13 103 19 22 2 49 6
60 9 11 2 27 5 35 5 13 1 13 2 0 11 -11 8 -6 10 20 8 48 -3 144 10 285 38 151
30 460 71 715 94 404 37 518 43 807 44 172 1 313 5 313 10 0 5 6 3 14 -3 14
-11 50 -10 62 2 4 4 13 -1 21 -11 13 -15 14 -15 10 -1 -4 12 1 17 21 17 25 0
25 -1 6 -15 -17 -13 -14 -14 39 -11 31 2 58 0 60 -3 1 -4 38 -9 82 -12 89 -6
162 -16 185 -24 8 -3 22 -7 30 -9 8 -1 70 -18 138 -38 209 -60 246 -95 177
-166 -42 -43 -30 -58 23 -28 18 10 36 17 40 16 4 -1 17 3 29 10 12 7 26 12 30
11 21 -4 32 3 32 19 0 9 2 37 4 62 4 41 -16 100 -33 100 -3 0 -18 12 -35 26
-80 69 -243 147 -355 168 -67 13 -84 18 -94 23 -6 4 -19 8 -31 9 -26 3 -118
21 -168 33 -22 5 -39 5 -43 0 -3 -5 -11 -9 -17 -8 -9 0 -8 2 1 6 20 8 3 23
-26 22 -17 -1 -21 -3 -9 -6 36 -9 15 -24 -30 -20 -31 2 -47 7 -46 15 2 7 -2
12 -7 12 -6 0 -10 -5 -10 -11 0 -14 -89 -4 -105 12 -7 7 -4 8 9 3 13 -5 17 -4
12 4 -9 15 -62 16 -71 2 -9 -15 -46 -12 -79 5 -18 10 -32 12 -35 6 -4 -6 -22
-6 -51 0 -25 6 -53 8 -62 6 -10 -3 -18 0 -18 6 0 7 -4 5 -10 -3 -7 -12 -12
-12 -22 -2 -6 6 -17 12 -22 12 -6 0 -4 -5 4 -10 10 -7 -5 -9 -50 -8 -63 1 -64
1 -20 8 45 7 45 7 -17 8 -34 1 -65 -2 -68 -8 -3 -5 -11 -10 -16 -10 -6 0 -7 5
-4 10 3 6 -3 10 -15 10 -12 0 -18 -4 -15 -10 4 -6 -9 -10 -32 -9 -38 1 -38 1
-8 9 17 4 -45 8 -147 8 -97 1 -190 -3 -207 -8 -19 -5 -31 -5 -31 1 0 9 -23 13
-31 5z m168 -62 c-3 -3 -12 -4 -19 -1 -8 3 -5 6 6 6 11 1 17 -2 13 -5z m143 2
c0 -8 -61 -12 -66 -4 -3 4 11 8 30 8 20 0 36 -2 36 -4z m130 -6 c0 -7 -16 -9
-42 -5 -59 9 -60 15 -5 15 26 0 47 -5 47 -10z m46 -17 c-8 -8 -36 5 -36 17 0
7 6 7 21 0 11 -7 18 -14 15 -17z m-271 -3 c-3 -5 -12 -10 -18 -10 -7 0 -6 4 3
10 19 12 23 12 15 0z m-355 -114 c0 -11 -19 -15 -25 -6 -3 5 1 10 9 10 9 0 16
-2 16 -4z m45 -6 c3 -5 1 -10 -4 -10 -6 0 -11 5 -11 10 0 6 2 10 4 10 3 0 8
-4 11 -10z m334 -2 c17 6 31 7 31 3 0 -5 39 -7 87 -5 48 3 83 1 79 -3 -9 -10
-20 -11 -170 -17 -107 -5 -117 -4 -100 10 11 9 13 12 5 8 -9 -5 -12 -3 -7 4 5
9 12 9 25 0 13 -8 26 -8 50 0z m-1906 -5 c-7 -2 -19 -2 -25 0 -7 3 -2 5 12 5
14 0 19 -2 13 -5z m2197 -9 c0 -2 -9 -4 -21 -4 -11 0 -18 4 -14 10 5 8 35 3
35 -6z m86 8 c-7 -12 -76 -13 -76 -2 0 6 18 10 41 10 22 0 38 -4 35 -8z m77 1
c-7 -2 -19 -2 -25 0 -7 3 -2 5 12 5 14 0 19 -2 13 -5z m-633 -7 c0 -3 -4 -8
-10 -11 -5 -3 -10 -1 -10 4 0 6 5 11 10 11 6 0 10 -2 10 -4z m75 -6 c3 -4 -11
-10 -30 -12 -33 -4 -43 1 -30 14 9 8 55 7 60 -2z m342 4 c-3 -3 -12 -4 -19 -1
-8 3 -5 6 6 6 11 1 17 -2 13 -5z m-834 -11 c-7 -2 -21 -2 -30 0 -10 3 -4 5 12
5 17 0 24 -2 18 -5z m374 1 c-3 -3 -12 -4 -19 -1 -8 3 -5 6 6 6 11 1 17 -2 13
-5z m-37 -16 c0 -5 -37 -7 -82 -7 -62 1 -73 3 -43 8 55 9 125 8 125 -1z m-200
-8 c0 -5 -7 -10 -15 -10 -8 0 -15 5 -15 10 0 6 7 10 15 10 8 0 15 -4 15 -10z
m267 4 c-3 -3 -12 -4 -19 -1 -8 3 -5 6 6 6 11 1 17 -2 13 -5z m-320 -10 c-3
-3 -12 -4 -19 -1 -8 3 -5 6 6 6 11 1 17 -2 13 -5z m1728 -4 c7 -12 -2 -12 -30
0 -19 8 -19 9 2 9 12 1 25 -3 28 -9z m-1838 -16 c-3 -3 -12 -4 -19 -1 -8 3 -5
6 6 6 11 1 17 -2 13 -5z m-812 -64 c-3 -5 -11 -10 -16 -10 -6 0 -7 5 -4 10 3
6 11 10 16 10 6 0 7 -4 4 -10z m-91 -20 c-5 -5 -25 -12 -44 -16 -35 -6 -35 -6
-10 9 29 17 70 23 54 7z m-117 -36 c-3 -3 -12 -4 -19 -1 -8 3 -5 6 6 6 11 1
17 -2 13 -5z m213 -4 c0 -5 -5 -10 -11 -10 -5 0 -7 5 -4 10 3 6 8 10 11 10 2
0 4 -4 4 -10z m-251 -4 c-2 -2 -22 -6 -44 -9 -28 -5 -34 -4 -20 3 19 8 73 14
64 6z m-359 -106 c0 -5 -10 -10 -22 -10 -19 0 -20 2 -8 10 19 13 30 13 30 0z
m20 -39 c0 -5 -9 -7 -20 -4 -11 3 -20 7 -20 9 0 2 9 4 20 4 11 0 20 -4 20 -9z
m-50 -5 c0 -2 -7 -6 -15 -10 -8 -3 -15 -1 -15 4 0 6 7 10 15 10 8 0 15 -2 15
-4z m-126 -52 c20 -8 11 -24 -12 -23 -12 0 -13 2 -3 6 11 5 11 7 0 14 -16 10
-8 12 15 3z m-84 -44 c-8 -5 -19 -10 -25 -10 -5 0 -3 5 5 10 8 5 20 10 25 10
6 0 3 -5 -5 -10z m-360 -120 c0 -5 -5 -10 -11 -10 -5 0 -7 5 -4 10 3 6 8 10
11 10 2 0 4 -4 4 -10z m-670 -290 c0 -5 -5 -10 -11 -10 -5 0 -7 5 -4 10 3 6 8
10 11 10 2 0 4 -4 4 -10z"/>
<path d="M8855 2690 c3 -5 10 -10 16 -10 5 0 9 5 9 10 0 6 -7 10 -16 10 -8 0
-12 -4 -9 -10z"/>
<path d="M7525 2680 c-3 -5 -2 -10 4 -10 5 0 13 5 16 10 3 6 2 10 -4 10 -5 0
-13 -4 -16 -10z"/>
<path d="M7418 2673 c6 -2 18 -2 25 0 6 3 1 5 -13 5 -14 0 -19 -2 -12 -5z"/>
</g>
</svg>
